<?xml version="1.0"?><svg width="640" height="480" xmlns="http://www.w3.org/2000/svg">
 <title>red flower</title>
 <g>
  <title>Layer 1</title>
  <path fill="#ef3434" fill-rule="evenodd" stroke="#000000" stroke-width="2.5" stroke-linecap="round" stroke-linejoin="round" stroke-miterlimit="4" id="path6320" d="m168.555496,172.100327c-12.720734,-17.046555 -24.040283,-35.242538 -37.713959,-51.512215c-12.55442,-9.240311 -20.949661,-26.537125 -36.442764,-30.085014c-9.316895,-0.780815 -24.368103,-9.22541 -20.810547,6.658073c1.4123,13.722443 12.902962,25.648331 22.061401,35.76342c9.59446,10.272064 19.852631,19.930847 32.154861,26.889328c11.599564,7.733032 23.199127,15.466064 34.798676,23.199097c6.611481,0.131027 6.631119,-6.107513 5.952332,-10.912689z"/>
  <path fill="#dd3030" fill-rule="evenodd" stroke="#000000" stroke-width="2.5" stroke-linecap="round" stroke-linejoin="round" stroke-miterlimit="4" id="path6321" d="m169.547562,171.108246c13.127274,5.488419 11.532471,-17.074753 6.752274,-24.111725c-5.987106,-17.629456 -11.718002,-35.348404 -18.067795,-52.852669c-8.881302,-10.475266 -14.026917,-25.019615 -25.922867,-32.296444c-8.165993,-6.466679 -24.56884,-14.83947 -22.274971,2.959034c-4.734245,13.441261 4.129204,26.256004 8.997124,38.357071c5.616371,11.411064 16.053238,18.855537 22.553299,29.679672c9.320999,12.75502 18.641968,25.510056 27.962936,38.26506z"/>
  <path fill="#ad2424" fill-rule="evenodd" stroke="#000000" stroke-width="2.5" stroke-linecap="round" stroke-linejoin="round" stroke-miterlimit="4" id="path6322" d="m179.777969,161.687637c8.761505,11.053711 7.133667,-12.303055 10.406128,-17.066757c3.174164,-12.991867 8.020645,-25.94397 5.325439,-39.44017c-1.045029,-16.896431 -1.974121,-33.921753 -7.388687,-50.09779c-2.633347,-8.098289 -13.101624,-22.261982 -19.071442,-9.373981c-8.659363,7.8508 -9.219788,20.615143 -10.252609,31.530319c-2.933319,14.316605 3.151688,27.422562 7.63002,40.656921c4.410446,13.994614 10.241394,27.769516 13.351151,42.038223c0,0.584412 0,1.753235 0,1.753235z"/>
  <path fill="#e53030" fill-rule="evenodd" stroke="#000000" stroke-width="2.5" stroke-linecap="round" stroke-linejoin="round" stroke-miterlimit="4" id="path6323" d="m186.792923,160.986115c5.493683,10.95874 20.625626,7.267471 24.388611,-3.189133c14.29834,-17.142975 27.938004,-34.829903 39.688782,-53.82885c6.527908,-7.54493 8.609329,-17.127243 10.556931,-26.614601c3.244598,-8.371872 -0.704559,-21.60836 -5.344452,-25.90572c-7.863449,2.444508 -15.104828,-4.896152 -20.469574,4.858448c-10.507416,8.598328 -17.744003,20.654015 -24.527557,32.201614c-8.390106,18.351425 -16.489059,36.960846 -20.112808,56.939911c-1.337692,5.194229 -2.84613,10.342392 -4.179932,15.53833z"/>
  <path fill="#b21515" fill-rule="evenodd" stroke="#000000" stroke-width="2.5" stroke-linecap="round" stroke-linejoin="round" stroke-miterlimit="4" id="path6324" d="m207.837784,165.896606c-6.108078,11.713165 6.353287,14.44809 15.143738,11.463165c15.229874,-9.212967 30.709778,-18.210098 43.701187,-30.539825c10.991638,-8.771851 17.384918,-21.644547 26.162048,-32.399094c6.399139,-8.950569 8.799896,-19.937416 13.20224,-29.897652c-13.752625,-4.940147 -26.212341,-0.67984 -37.81842,7.079506c-12.080872,6.547142 -21.605911,17.207947 -28.014786,29.262062c-10.166687,12.879936 -21.326965,24.987236 -30.473373,38.689766c-0.634201,2.114029 -1.268433,4.228058 -1.902634,6.342072z"/>
  <path fill="#c60909" fill-rule="evenodd" stroke="#000000" stroke-width="2.5" stroke-linecap="round" stroke-linejoin="round" stroke-miterlimit="4" id="path6325" d="m221.166153,177.822006c-10.443329,1.503998 -6.565933,14.023911 3.028793,8.857529c15.292267,-1.501907 30.717987,-2.457306 45.957916,0.079468c14.062195,-0.5737 29.163513,0.766251 41.990662,-5.813263c11.867584,-4.104691 22.914307,-11.914597 29.613831,-22.379868c0.571472,-11.328445 -18.538055,-5.667099 -26.479736,-9.495926c-11.456909,-0.719269 -20.288239,10.500061 -31.997986,11.274521c-20.868195,5.271408 -40.961456,13.298386 -62.11348,17.477539z"/>
  <path fill="#bc1c1c" fill-rule="evenodd" stroke="#000000" stroke-width="2.5" stroke-linecap="round" stroke-linejoin="round" stroke-miterlimit="4" id="path6326" d="m223.270645,177.822006c22.229034,-4.603622 43.433945,-12.806961 64.801498,-20.177643c15.649872,-3.732407 28.28418,-14.039688 40.42276,-24.016525c2.53418,-8.605118 7.635406,-18.289627 -5.401428,-18.439301c-11.720032,-1.39138 -23.75238,4.718605 -33.974457,10.228455c-11.998718,2.941864 -12.93158,16.616302 -22.862762,22.240753c-13.358932,11.411362 -28.264618,20.655701 -42.985611,30.164261z"/>
  <path fill="#d81c1c" fill-rule="evenodd" stroke="#000000" stroke-width="2.5" stroke-linecap="round" stroke-linejoin="round" stroke-miterlimit="4" id="path6327" d="m214.852737,187.642944c17.999832,-1.296738 36.054916,-5.17244 54.027878,-1.495819c16.413452,2.041336 32.810364,6.091156 46.827179,15.212936c8.100677,2.084412 27.005341,14.856644 10.858887,19.515732c-8.742493,4.690567 -19.185486,3.95665 -28.766388,5.028244c-20.075134,-2.522308 -40.297974,-4.931061 -59.670853,-11.096191c-10.711365,-3.299393 -22.69487,-6.952438 -30.139145,-15.632355c-3.541183,-5.597717 3.805267,-8.237778 6.862442,-11.532547z"/>
  <path fill="#ef3e3e" fill-rule="evenodd" stroke="#000000" stroke-width="2.5" stroke-linecap="round" stroke-linejoin="round" stroke-miterlimit="4" id="path6328" d="m301.838104,227.628143c9.876068,6.38472 20.156403,28.196609 2.581329,29.783997c-14.113129,0.589508 -29.259918,-0.29361 -41.043365,-8.979599c-17.688293,-10.438156 -37.986099,-18.391403 -50.807495,-35.130569c-6.480362,-9.231918 4.467453,-11.916245 9.900803,-4.568253c12.821182,6.621689 27.497421,8.501465 41.473679,11.916336c12.655457,2.195145 25.269409,4.617752 37.89505,6.978088z"/>
  <path fill="#db3434" fill-rule="evenodd" stroke="#000000" stroke-width="2.5" stroke-linecap="round" stroke-linejoin="round" stroke-miterlimit="4" id="path6329" d="m280.091736,256.389435c8.26709,9.003021 16.163727,27.59668 6.124542,35.852417c-12.5,-1.584625 -29.364532,-1.786469 -34.676376,-15.76236c-4.614746,-11.924866 -7.958786,-24.73671 -16.875885,-34.370636c-5.537994,-8.241623 -17.630234,-23.189163 -19.959961,-26.595673c7.341568,8.470062 16.044983,15.489731 26.259918,20.161102c11.738419,6.371277 22.874405,14.136841 34.907028,19.777191c1.406921,0.312653 2.813843,0.625336 4.220734,0.937958z"/>
  <path fill="#a01010" fill-rule="evenodd" stroke="#000000" stroke-width="2.5" stroke-linecap="round" stroke-linejoin="round" stroke-miterlimit="4" id="path6330" d="m253.434952,280.941742c-1.638,9.224335 2.600052,20.915619 -4.172958,28.281769c-12.627197,3.059509 -21.86026,-9.195038 -29.111557,-17.685486c-8.062332,-14.437103 -17.625641,-28.271057 -21.776154,-44.512527c-3.137115,-9.8992 -5.262665,-20.652634 -5.291794,-30.791351c10.439209,-11.954041 24.104675,0.002991 29.687561,10.500748c8.612564,11.841064 20.503326,22.016876 24.239227,36.643372c2.141891,5.854492 4.283783,11.709015 6.425674,17.563477z"/>
  <path fill="#c61b1b" fill-rule="evenodd" stroke="#000000" stroke-width="2.5" stroke-linecap="round" stroke-linejoin="round" stroke-miterlimit="4" id="path6331" d="m234.494583,306.195526c1.591095,9.58548 -3.390472,29.061737 -16.170822,22.716431c-12.728241,-0.676636 -13.591858,-16.983643 -19.831589,-25.593842c-2.808105,-9.045593 -5.626221,-18.888031 -5.471008,-28.342529c2.742157,-9.351105 4.12706,-19.31488 4.547409,-28.820724c5.219742,16.848953 14.447693,32.05687 23.869202,46.823044c3.945313,4.797729 8.936768,8.584198 13.056808,13.217621z"/>
  <path fill="#8e0b0b" fill-rule="evenodd" stroke="#000000" stroke-width="2.5" stroke-linecap="round" stroke-linejoin="round" stroke-miterlimit="4" id="path6332" d="m209.942276,327.240387c-2.648743,8.15564 -11.486267,25.569733 -19.035095,12.437469c-6.933777,-9.886475 -8.658508,-21.272583 -7.680847,-33.056427c-0.248016,-10.294281 5.979599,-19.212524 7.775574,-29.187134c3.37825,13.585419 6.256729,27.480988 13.797546,39.520508c1.714279,3.428528 3.428558,6.857056 5.142822,10.285583z"/>
  <path fill="#cc1010" fill-rule="evenodd" stroke="#000000" stroke-width="2.5" stroke-linecap="round" stroke-linejoin="round" stroke-miterlimit="4" id="path6333" d="m197.315323,243.061005c-2.259399,16.234406 -3.852676,32.825745 -11.370956,47.699677c-5.549591,12.340729 -12.717712,28.523529 -25.636978,32.874542c-11.806961,2.871582 -12.614426,-17.366119 -14.091675,-25.521393c1.035019,-16.092682 1.642334,-33.205231 10.715714,-47.161819c5.909576,-11.665558 11.515518,-23.487015 17.234604,-35.249283c10.949356,-5.617523 20.61496,1.111847 19.836578,13.003082c1.104248,4.785065 2.208466,9.570145 3.312714,14.355194z"/>
  <path fill="#b22c2c" fill-rule="evenodd" stroke="#000000" stroke-width="2.5" stroke-linecap="round" stroke-linejoin="round" stroke-miterlimit="4" id="path6334" d="m146.106216,304.792572c-7.075134,5.502594 -14.000641,13.949921 -23.702858,13.416809c-12.396118,-2.894714 -7.571869,-22.670441 3.016113,-25.932404c9.349327,-4.885712 20.466103,-22.863007 23.852074,-23.7948c-1.965927,12.004456 -3.996689,24.10025 -3.165329,36.310394z"/>
  <path fill="#e51919" fill-rule="evenodd" stroke="#000000" stroke-width="2.5" stroke-linecap="round" stroke-linejoin="round" stroke-miterlimit="4" id="path6335" d="m174.166031,214.299713c-12.28624,23.954483 -20.974716,50.317963 -39.592636,70.411743c-7.009804,8.929657 -18.308266,12.483887 -27.049393,19.379639c-14.87838,3.056091 -11.319481,-13.883575 -7.502434,-22.150085c2.614578,-10.627411 7.032539,-21.03064 13.57959,-29.753464c11.540428,-5.425644 23.046181,-11.435333 31.995018,-20.79216c8.840179,-4.524506 18.685699,-21.753021 28.569855,-17.095673z"/>
  <path fill="#e01d1d" fill-rule="evenodd" stroke="#000000" stroke-width="2.5" stroke-linecap="round" stroke-linejoin="round" stroke-miterlimit="4" id="path6336" d="m169.957047,210.792267c-13.1539,11.222717 -25.358368,23.57103 -39.232803,33.936813c-18.534897,7.45372 -37.030502,16.866898 -57.526512,16.505692c-6.607208,0.511414 -18.779053,0.480743 -10.228432,-8.698013c4.700844,-12.222656 15.303238,-20.747528 25.302834,-28.628952c10.985046,-7.003998 21.442841,-15.210663 34.262589,-18.61937c11.310478,-5.35791 23.917793,-7.233459 36.255898,-7.35321c4.989395,2.144897 9.830765,7.485947 11.166428,12.85704z"/>
  <path fill="#d32323" fill-rule="evenodd" stroke="#000000" stroke-width="2.5" stroke-linecap="round" stroke-linejoin="round" stroke-miterlimit="4" id="path6337" d="m71.747757,237.449066c-12.567429,1.519455 -31.619457,1.123199 -39.246937,-8.63266c5.974499,-8.278702 16.3078,-14.643753 25.408859,-19.92778c14.429447,-5.61676 28.888004,-11.450974 44.390949,-13.314072c14.260033,-2.196808 28.807434,-4.268707 43.131409,-4.694443c9.514465,-3.279037 15.769012,9.795609 2.773758,6.934708c-12.410583,-0.046585 -24.161148,5.736008 -34.966713,11.228271c-15.291504,7.345459 -28.624039,17.482895 -41.491325,28.405975z"/>
  <path fill="#b53232" fill-rule="evenodd" stroke="#000000" stroke-width="2.5" stroke-linecap="round" stroke-linejoin="round" stroke-miterlimit="4" id="path6338" d="m92.792618,196.762375c-10.006905,-0.525421 -20.200951,-1.075867 -29.142849,-6.108994c-10.111797,-3.869263 -19.15258,-10.161072 -27.56176,-16.753326c-6.045658,-12.756485 15.613552,-15.868607 24.655781,-14.356949c16.555283,-0.36792 33.102867,0.692154 49.586182,2.144531c16.395927,8.029388 33.840088,14.414093 48.610138,25.362213c3.528244,12.025787 -15.253204,1.4245 -22.353485,4.768234c-14.747673,-0.285629 -29.234344,3.008163 -43.794006,4.94429z"/>
  <path fill="#ef3434" fill-rule="evenodd" stroke="#000000" stroke-width="2.5" stroke-linecap="round" stroke-linejoin="round" stroke-miterlimit="4" id="path6339" d="m86.479141,158.881653c-10.980644,-6.383347 -23.91629,-10.378174 -31.6189,-21.106857c-5.902462,-4.547028 -17.159321,-23.559036 -2.765949,-21.882423c11.984848,4.283829 31.447006,-5.074722 35.844582,9.907967c8.586807,9.889877 17.716713,19.966934 28.748596,27.272476c15.093933,9.412308 30.042007,19.093445 44.851608,28.95816c-0.42955,13.502319 -14.441055,-5.271423 -21.2659,-5.847504c-12.824379,-4.033676 -23.439674,-14.786179 -36.987579,-15.500748c-5.629532,-0.26712 -11.271568,-0.693893 -16.806458,-1.801071z"/>
  <path fill="#000000" fill-rule="evenodd" stroke="#000000" stroke-width="2.5" stroke-linecap="round" stroke-linejoin="round" stroke-miterlimit="4" id="path6340" d="m179.777969,161.687637c-1.855576,5.676727 -3.781113,11.513687 -10.612625,8.940887c0.669846,9.827103 -9.046677,12.252441 -10.622452,21.158676c-6.73082,7.79892 15.147491,11.826233 11.855347,20.991516c6.213028,5.593674 16.537003,-0.95752 22.148972,4.523682c5.425232,-8.894852 22.391525,-1.747162 18.182755,-15.503403c-10.145752,-6.744308 16.580795,-25.028076 -0.096359,-24.678482c-10.091949,2.092484 4.353638,-28.201492 -5.310242,-12.21225c-6.374207,5.214752 -15.898697,0.47731 -19.469681,-4.141525c-0.789841,7.705338 -2.067566,5.421829 -6.075714,0.920898z"/>
 </g>
</svg>